# xmcd CD database file
#
# Track frame offsets:
#	150
#	22835
#	42455
#	55045
#	67055
#	90340
#	106037
#	123965
#	136000
#	147902
#	178080
#	194815
#
# Disc length: 2831 seconds
#
# Revision: 0
# Processed by: cddbd v1.5.2PL0 Copyright (c) Steve Scherf et al.
# Submitted via: CDex 1.70beta2
#
DISCID=a10b0d0c
DTITLE=Muddy Waters - Blow Wind Blow
DYEAR=1995
DGENRE=Blues
TTITLE0=Howlin' Wolf
TTITLE1=What's The Matter With The Mill?
TTITLE2=Hoochie Coochie Man
TTITLE3=Baby Please Don't Go
TTITLE4=Mannish Boy
TTITLE5=Everything's Going To Be Alrigth
TTITLE6=Blow Wind Blow
TTITLE7=Love 'N' Trouble
TTITLE8=Got My Mojo Working
TTITLE9=Instrumental
TTITLE10=Harmonica Boogie
TTITLE11=Garbage Man
EXTD=YEAR: 1995
EXTT0=
EXTT1=
EXTT2=
EXTT3=
EXTT4=
EXTT5=
EXTT6=
EXTT7=
EXTT8=
EXTT9=
EXTT10=
EXTT11=
PLAYORDER=
